<svg xmlns="http://www.w3.org/2000/svg" viewBox="0 0 850.3937 425.1969"><defs><style>.cls-1{fill:#6d92ba;}.cls-2,.cls-3{fill:#fff;}.cls-2{fill-rule:evenodd;}</style></defs><title>weknowit_logo_blue</title><g id="Layer_1" data-name="Layer 1"><rect class="cls-1" width="850.3937" height="425.1969"/></g><g id="Layer_2" data-name="Layer 2"><g id="Logo"><path class="cls-2" d="M152.5462,155.2489,82.2951,203.28a3.2389,3.2389,0,0,0-.8547,4.2731c.171.3419.5128.5128.8547.8547l70.2511,48.0306a2.9113,2.9113,0,0,0,4.2732-.8547,3.2973,3.2973,0,0,0,.5128-1.7092V241.909a3.0139,3.0139,0,0,0-1.3674-2.5639L110.84,208.4073a3.239,3.239,0,0,1-.8547-4.2732c.1709-.3419.5128-.5128.8547-.8546l45.2957-30.9379a3.0137,3.0137,0,0,0,1.3674-2.5639V157.8128a3.2138,3.2138,0,0,0-4.9569-2.5639Z"/><path class="cls-2" d="M167.93,239.3451a3.0139,3.0139,0,0,0-1.3674,2.5639v11.794a3.0639,3.0639,0,0,0,3.0767,3.0767,3.4453,3.4453,0,0,0,1.88-.5128l17.2636-11.7939L185.3643,227.38ZM241.77,203.28l-70.2511-48.0306a2.9113,2.9113,0,0,0-4.2732.8546,3.2977,3.2977,0,0,0-.5128,1.7093v11.794a3.0139,3.0139,0,0,0,1.3674,2.5639l45.1248,30.9378a3.239,3.239,0,0,1,.8547,4.2732c-.1709.3419-.5128.5128-.8547.8547l-7.35,4.9569,14.7,9.401,21.0241-14.3579a3.2389,3.2389,0,0,0,.8546-4.2732Z"/><polygon class="cls-2" points="190.15 212.339 195.791 239.858 202.115 229.773 213.909 227.38 190.15 212.339"/></g><g id="Text"><g id="Lato"><path class="cls-3" d="M282.451,190.1181h7.6918a3.2845,3.2845,0,0,1,2.0511.6837,2.6574,2.6574,0,0,1,1.0255,1.3674l10.5975,35.8947c.3419,1.3674.5128,2.5639.8547,3.76a24.5237,24.5237,0,0,1,.6837,3.76c.3418-1.1965.6837-2.5639,1.0255-3.76a31.9009,31.9009,0,0,1,1.1965-3.76l11.794-36.0656a4.0359,4.0359,0,0,1,1.0256-1.5384,2.8878,2.8878,0,0,1,1.7092-.5128h4.2732a2.7731,2.7731,0,0,1,2.7349,1.88l11.4521,36.0657c.3419,1.3674.8546,2.5639,1.0256,3.76a29.7744,29.7744,0,0,1,.8546,3.76c.171-1.1965.5128-2.393.6837-3.76s.6837-2.5639.8547-3.76l10.9393-35.8947A4.0359,4.0359,0,0,1,355.95,190.46a2.4471,2.4471,0,0,1,1.88-.5128h7.35L347.2325,245.67h-7.6917c-1.0256,0-1.5384-.6838-1.88-1.88l-12.3067-37.775a14.2336,14.2336,0,0,1-.6837-2.5639q-.2565-1.2819-.5128-2.5639-.2564,1.2819-.5128,2.5639c-.1709.8546-.5128,1.7093-.6837,2.5639l-12.4777,37.604a2.3659,2.3659,0,0,1-2.2221,1.88h-7.35Z"/><path class="cls-3" d="M395.9468,189.2634a24.5485,24.5485,0,0,1,9.23,1.7093,18.8956,18.8956,0,0,1,7.35,4.786,23.1626,23.1626,0,0,1,4.786,7.8626,32.0108,32.0108,0,0,1,1.7093,10.5975,4.9319,4.9319,0,0,1-.5128,3.0767,2.7447,2.7447,0,0,1-1.88.8546H379.5377a34.481,34.481,0,0,0,1.3675,9.23,18.6162,18.6162,0,0,0,3.59,6.4953,15.4131,15.4131,0,0,0,5.47,3.9313,19.868,19.868,0,0,0,7.179,1.3674,19.5118,19.5118,0,0,0,6.3243-.8546,26.2006,26.2006,0,0,0,4.615-1.88,31.7453,31.7453,0,0,0,3.2476-1.88,3.6,3.6,0,0,1,2.2221-.8547,2.7449,2.7449,0,0,1,1.88.8547l2.7348,3.5894a18.5693,18.5693,0,0,1-4.2731,3.9314,32.6918,32.6918,0,0,1-5.47,2.7348,34.11,34.11,0,0,1-5.9825,1.5384,37.3741,37.3741,0,0,1-6.1534.5127,32.1931,32.1931,0,0,1-10.5975-1.88,23.4,23.4,0,0,1-8.3754-5.6406,27.2064,27.2064,0,0,1-5.47-9.401,40.27,40.27,0,0,1-2.0511-12.82,34.0393,34.0393,0,0,1,1.7093-10.9394,25.0032,25.0032,0,0,1,5.1278-8.7173,23.1926,23.1926,0,0,1,8.2045-5.8115A25.5393,25.5393,0,0,1,395.9468,189.2634Zm.1709,7.179a14.7843,14.7843,0,0,0-11.11,4.1022,19.0725,19.0725,0,0,0-5.1278,11.2812h30.2541a24.3041,24.3041,0,0,0-.8546-6.1534,13.4131,13.4131,0,0,0-2.7348-4.7859,14.2247,14.2247,0,0,0-4.4442-3.2476,17.7562,17.7562,0,0,0-5.9824-1.1965Z"/><path class="cls-3" d="M441.5844,164.9917V212.51h2.5639a3.6809,3.6809,0,0,0,1.88-.3418,3.7219,3.7219,0,0,0,1.5383-1.1965l17.6056-18.802a6.6909,6.6909,0,0,1,1.7092-1.3674,4.7312,4.7312,0,0,1,2.2221-.5128h8.8882l-20.5113,21.8787a15.4135,15.4135,0,0,1-1.5383,1.7093,6.14,6.14,0,0,1-1.7093,1.1964,15.4139,15.4139,0,0,1,1.7093,1.5384c.5128.6837,1.0256,1.1965,1.5383,1.88L479.1884,245.84h-8.7173a3.4462,3.4462,0,0,1-1.88-.5128,4.0363,4.0363,0,0,1-1.5384-1.3674l-18.2892-22.7334a3.7406,3.7406,0,0,0-1.7092-1.5383,6.2289,6.2289,0,0,0-2.393-.3419h-3.0767v26.6647h-9.9138v-81.02Z"/><path class="cls-3" d="M489.1022,245.84V190.1181h5.8115a2.724,2.724,0,0,1,2.7349,2.0511l.6837,5.9824a36.226,36.226,0,0,1,8.0335-6.4952,20.34,20.34,0,0,1,10.4266-2.393,21.65,21.65,0,0,1,8.0336,1.5384,16.0638,16.0638,0,0,1,5.8115,4.2732,19.3768,19.3768,0,0,1,3.5895,6.6661,29.0494,29.0494,0,0,1,1.1965,8.7173V245.84h-9.7428v-35.382a14.9591,14.9591,0,0,0-2.9058-9.7429,10.6952,10.6952,0,0,0-8.8882-3.4185,17.179,17.179,0,0,0-8.2046,2.0511,31.7479,31.7479,0,0,0-7.008,5.6406v41.0226Z"/><path class="cls-3" d="M572.6857,189.2634a29.6086,29.6086,0,0,1,10.9393,2.0512,21.8078,21.8078,0,0,1,8.3755,5.8115,25.3472,25.3472,0,0,1,5.2987,9.0591,34.7792,34.7792,0,0,1,1.88,11.794,34.1184,34.1184,0,0,1-1.88,11.794,26.9039,26.9039,0,0,1-5.2987,9.0592,23.8373,23.8373,0,0,1-8.3755,5.8115,30.6551,30.6551,0,0,1-22.05,0,21.8086,21.8086,0,0,1-8.3754-5.8115,23.08,23.08,0,0,1-5.2988-9.0592,34.7788,34.7788,0,0,1-1.88-11.794,34.1211,34.1211,0,0,1,1.88-11.794,25.346,25.346,0,0,1,5.2988-9.0591,23.8369,23.8369,0,0,1,8.3754-5.8115A31.1832,31.1832,0,0,1,572.6857,189.2634Zm0,49.74c5.47,0,9.5719-1.88,12.3068-5.47q4.1022-5.6406,4.1022-15.3835c0-6.4952-1.3674-11.7939-4.1022-15.5543s-6.8371-5.47-12.3068-5.47a16.8129,16.8129,0,0,0-7.179,1.3674,13.339,13.339,0,0,0-5.1278,4.1022,16.9237,16.9237,0,0,0-3.0767,6.6662,37.9465,37.9465,0,0,0-1.0256,8.7173,39.4128,39.4128,0,0,0,1.0256,8.8882,15.2895,15.2895,0,0,0,8.2045,10.5975A16.3785,16.3785,0,0,0,572.6857,239.0033Z"/><path class="cls-3" d="M603.9654,190.1181h7.6917a2.57,2.57,0,0,1,1.88.6837,2.6576,2.6576,0,0,1,1.0256,1.3674L625.16,228.0639c.3419,1.3674.5128,2.5639.8546,3.76a24.5116,24.5116,0,0,1,.6837,3.76c.3419-1.1965.6837-2.5639,1.0256-3.76a31.9009,31.9009,0,0,1,1.1965-3.76l11.794-36.0656a2.6582,2.6582,0,0,1,1.0256-1.3675,2.8879,2.8879,0,0,1,1.7093-.5127h4.2731a3.4461,3.4461,0,0,1,1.88.5127,2.6582,2.6582,0,0,1,1.0256,1.3675l11.4522,36.0656c.3419,1.3674.6837,2.5639,1.0256,3.76a29.7918,29.7918,0,0,1,.8546,3.76,35.3714,35.3714,0,0,1,.6837-3.76,38.4561,38.4561,0,0,0,.8546-3.76l10.9394-35.8947a4.0355,4.0355,0,0,1,1.0255-1.5384,3.4463,3.4463,0,0,1,1.88-.5127h7.35L668.7469,245.84h-7.6917c-1.0256,0-1.5383-.6837-2.0511-1.88l-12.3068-37.775a14.2314,14.2314,0,0,1-.6837-2.5639l-.5128-2.5639q-.2564,1.282-.5128,2.5639a14.2314,14.2314,0,0,1-.6837,2.5639l-12.4776,37.6041a2.3661,2.3661,0,0,1-2.2221,1.88h-7.35Z"/><path class="cls-3" d="M708.402,172.6835a7.74,7.74,0,0,1-.5128,2.7348,7.5534,7.5534,0,0,1-3.76,3.76,7.0855,7.0855,0,0,1-2.7349.5128,6.2436,6.2436,0,0,1-2.5639-.5128,7.5541,7.5541,0,0,1-3.76-3.76,7.0868,7.0868,0,0,1-.5127-2.7348,7.7431,7.7431,0,0,1,.5127-2.7349,6.772,6.772,0,0,1,3.76-3.76,6.8592,6.8592,0,0,1,2.5639-.5128,7.7427,7.7427,0,0,1,2.7348.5128,7.5541,7.5541,0,0,1,3.76,3.76A7.7431,7.7431,0,0,1,708.402,172.6835ZM706.18,190.1181v55.5513H696.437V190.1181Z"/><path class="cls-3" d="M740.3654,246.695a13.1108,13.1108,0,0,1-10.0847-3.76,14.8418,14.8418,0,0,1-3.59-10.5975V198.3226H720.025a2.7575,2.7575,0,0,1-1.5383-.5128,1.856,1.856,0,0,1-.6837-1.5384V192.34l9.0591-1.1965,2.2221-17.2636a2.11,2.11,0,0,1,.6837-1.3675A2.7569,2.7569,0,0,1,731.3062,172h4.9569v19.1438h15.8962v7.008H736.2631v33.3309a6.9456,6.9456,0,0,0,1.7093,5.1278,6.0531,6.0531,0,0,0,4.4441,1.7093,14.9624,14.9624,0,0,0,2.7348-.3419,6.32,6.32,0,0,0,1.88-.8546,15.786,15.786,0,0,1,1.3674-.8547l1.0256-.5127a1.7428,1.7428,0,0,1,1.3674.8546l2.9058,4.615a17.5793,17.5793,0,0,1-6.1534,3.76A14.8348,14.8348,0,0,1,740.3654,246.695Z"/></g></g></g></svg>