<?xml version="1.0" encoding="UTF-8" standalone="no"?>
<!DOCTYPE svg PUBLIC "-//W3C//DTD SVG 1.1//EN" "http://www.w3.org/Graphics/SVG/1.1/DTD/svg11.dtd">
<svg width="100%" height="100%" viewBox="0 0 391 534" version="1.1" xmlns="http://www.w3.org/2000/svg" xmlns:xlink="http://www.w3.org/1999/xlink" xml:space="preserve" xmlns:serif="http://www.serif.com/" style="fill-rule:evenodd;clip-rule:evenodd;stroke-linecap:round;stroke-linejoin:round;stroke-miterlimit:1.5;">
    <g>
        <g transform="matrix(1,0,0,1,-0.160462,0.971952)">
            <path d="M4.2,20.7C4.2,20.7 0,3.9 20.1,3.9L370,3.9C370,3.9 386.1,3.9 386.1,20.8L386.1,457.7C386.1,457.7 388.8,473.8 370.8,473.8L24.1,473.8C24.1,473.8 6.3,476.2 6.3,455.1C6.3,434 4.2,20.7 4.2,20.7Z" style="fill:rgb(110,201,168);fill-rule:nonzero;"/>
        </g>
        <g transform="matrix(1,0,0,1,0.121151,-0.484609)">
            <path d="M79.8,474.1L64.8,492.1C64.8,492.1 60.5,466.6 47.3,467.5C34.1,468.3 37.6,502 37.6,502C37.6,502 43.5,528 57,527.9C57,527.9 62.3,528.6 68.2,521.3L106.6,474.2L79.8,474.1Z" style="fill:rgb(99,142,148);fill-rule:nonzero;"/>
        </g>
        <g transform="matrix(0.999944,-0.0105785,0.0105785,0.999944,-5.60452,3.00549)">
            <path d="M332.6,474.3L348.1,488.8C348.1,488.8 351.4,463.2 365.3,463.4C379.2,463.6 377.2,497.3 377.2,497.3C377.2,497.3 372.3,523.5 358.1,524.1C358.1,524.1 352.6,525 346,518.1L303.3,474L332.6,474.3Z" style="fill:rgb(99,142,148);fill-rule:nonzero;"/>
        </g>
        <g>
            <g transform="matrix(1,0,0,1,4.14766,2.30424)">
                <path d="M302.3,257.9C317.1,257.5 318.4,280.9 302.9,281.3C287.3,281.6 287.5,258.2 302.3,257.9Z" style="fill:rgb(63,94,163);fill-rule:nonzero;"/>
            </g>
            <path d="M302.3,257.9C317.1,257.5 318.4,280.9 302.9,281.3C287.3,281.6 287.5,258.2 302.3,257.9Z" style="fill:rgb(80,126,227);fill-rule:nonzero;"/>
        </g>
        <g transform="matrix(1,0,0,1,-1.7435,0.435867)">
            <path d="M48.1,55C48.1,55 49.3,38.3 63.5,37.2C77.7,36.1 327.8,34.8 327.8,34.8C327.8,34.8 344.3,32 345.3,53C346.3,74 343.3,218.1 343.3,218.1C343.3,218.1 345.7,235.9 329.5,236.6C313.3,237.3 70.4,238.7 70.4,238.7C70.4,238.7 49.9,242.2 49.8,222C49.7,201.8 48.1,55 48.1,55Z" style="fill:rgb(205,255,218);fill-rule:nonzero;"/>
        </g>
        <g>
            <g transform="matrix(1,0,0,1,4.14766,2.30425)">
                <ellipse cx="123.1" cy="418.2" rx="10.5" ry="5.3" style="fill:rgb(38,41,79);"/>
            </g>
            <g transform="matrix(1,0,0,1,33.4529,0)">
                <path d="M82.51,420.785C82.351,420.852 82.243,421.003 82.232,421.176C82.221,421.349 82.308,421.513 82.458,421.599C83.325,422.102 84.733,422.919 85.798,423.536C86.711,424.066 87.814,424.159 88.803,423.79C91.934,422.621 98.921,420.014 101.799,418.94C102.033,418.852 102.197,418.637 102.218,418.388C102.24,418.139 102.117,417.899 101.901,417.772C100.724,417.078 98.93,416.021 97.822,415.368C97.198,415 96.437,414.948 95.769,415.228C92.912,416.426 85.099,419.7 82.51,420.785Z" style="fill:rgb(38,41,79);stroke:rgb(38,41,79);stroke-width:1px;"/>
            </g>
            <ellipse cx="123.1" cy="418.2" rx="10.5" ry="5.3" style="fill:rgb(47,51,104);"/>
        </g>
        <g>
            <g transform="matrix(1,0,0,1,4.14766,2.30425)">
                <ellipse cx="89.5" cy="418.2" rx="10.5" ry="5.3" style="fill:rgb(38,41,79);"/>
            </g>
            <path d="M82.51,420.785C82.351,420.852 82.243,421.003 82.232,421.176C82.221,421.349 82.308,421.513 82.458,421.599C83.325,422.102 84.733,422.919 85.798,423.536C86.711,424.066 87.814,424.159 88.803,423.79C91.934,422.621 98.921,420.014 101.799,418.94C102.033,418.852 102.197,418.637 102.218,418.388C102.24,418.139 102.117,417.899 101.901,417.772C100.724,417.078 98.93,416.021 97.822,415.368C97.198,415 96.437,414.948 95.769,415.228C92.912,416.426 85.099,419.7 82.51,420.785Z" style="fill:rgb(38,41,79);stroke:rgb(38,41,79);stroke-width:1px;"/>
            <ellipse cx="89.5" cy="418.2" rx="10.5" ry="5.3" style="fill:rgb(47,51,104);"/>
        </g>
        <g>
            <g transform="matrix(1,0,0,1,5.06936,4.14764)">
                <path d="M78.4,354.9L98.3,354.9L98.3,334.9L118.3,334.9L118.3,354.9L138.3,354.9L138.3,374.9L118.3,374.9L118.3,394.9L98.5,394.9L98.5,374.9L78.4,374.9L78.4,354.9Z" style="fill:rgb(184,136,112);fill-rule:nonzero;"/>
            </g>
            <path d="M122.871,339.214L118.218,335.468L101.372,358.587L78.863,374.718L83.584,378.506L99.819,374.118L98.981,394.764L103.702,398.552L142.89,359.386L138.17,355.431L113.021,356.102L122.871,339.214Z" style="fill:rgb(184,136,112);stroke:rgb(184,136,112);stroke-width:1px;"/>
            <path d="M78.4,354.9L98.3,354.9L98.3,334.9L118.3,334.9L118.3,354.9L138.3,354.9L138.3,374.9L118.3,374.9L118.3,394.9L98.5,394.9L98.5,374.9L78.4,374.9L78.4,354.9Z" style="fill:rgb(255,206,72);fill-rule:nonzero;"/>
        </g>
        <g>
            <g transform="matrix(1,0,0,1,5.33861,3.94742)">
                <circle cx="278.4" cy="416" r="25.9" style="fill:rgb(177,102,122);"/>
            </g>
            <g transform="matrix(1,0,0,1,-2.03499,-1.58278)">
                <path d="M301.749,401.725L294.207,396.298C294.207,396.298 270.098,427.175 264.254,434.659C263.923,435.084 263.777,435.625 263.851,436.159C263.925,436.693 264.212,437.174 264.647,437.493C266.964,439.192 270.892,442.071 270.892,442.071L301.749,401.725Z" style="fill:rgb(177,102,122);stroke:rgb(177,102,122);stroke-width:1px;"/>
            </g>
            <circle cx="278.4" cy="416" r="25.9" style="fill:rgb(255,126,132);"/>
        </g>
        <g>
            <g transform="matrix(1,0,0,1,5.06938,3.22596)">
                <circle cx="320.5" cy="370.6" r="13.5" style="fill:rgb(85,146,120);"/>
            </g>
            <path d="M332.623,362.909L327.61,359.7L314.316,382.083L318.942,384.979L332.623,362.909Z" style="fill:rgb(85,146,120);stroke:rgb(85,146,120);stroke-width:1px;"/>
            <circle cx="320.5" cy="370.6" r="13.5" style="fill:rgb(144,247,140);"/>
        </g>
        <g>
            <g transform="matrix(1,0,0,1,6.51378,3.82441)">
                <path d="M243.4,366.2L277.1,366.2L260.3,337L243.4,366.2Z" style="fill:rgb(63,144,141);fill-rule:nonzero;"/>
            </g>
            <g transform="matrix(1,0,0,1,-0.398983,0.598472)">
                <path d="M266.584,340.449L260.885,337.119L244.506,365.444L250.193,368.747L266.584,340.449Z" style="fill:rgb(63,144,141);stroke:rgb(63,144,141);stroke-width:1px;stroke-linejoin:miter;"/>
            </g>
            <path d="M243.4,366.2L277.1,366.2L260.3,337L243.4,366.2Z" style="fill:rgb(126,233,229);fill-rule:nonzero;"/>
        </g>
    </g>
</svg>
